<?xml version="1.0" encoding="utf-8"?>
<!-- Generator: Adobe Illustrator 14.0.0, SVG Export Plug-In . SVG Version: 6.00 Build 43363)  -->
<!DOCTYPE svg PUBLIC "-//W3C//DTD SVG 1.1//EN" "http://www.w3.org/Graphics/SVG/1.1/DTD/svg11.dtd">
<svg version="1.1" id="Layer_1" xmlns="http://www.w3.org/2000/svg" xmlns:xlink="http://www.w3.org/1999/xlink" x="0px" y="0px"
	 width="288px" height="288px" viewBox="0 0 288 288" enable-background="new 0 0 288 288" xml:space="preserve">
<g>
	<g>
		<image overflow="visible" width="1138" height="1150" xlink:href="F404F1E5.png"  transform="matrix(0.24 0 0 0.24 8.001 6)">
		</image>
	</g>
	<defs>
		<filter id="Adobe_OpacityMaskFilter" filterUnits="userSpaceOnUse" x="8.001" y="6" width="273.178" height="276">
			
				<feColorMatrix  type="matrix" values="-1 0 0 0 1  0 -1 0 0 1  0 0 -1 0 1  0 0 0 1 0" color-interpolation-filters="sRGB" result="source"/>
		</filter>
	</defs>
	<mask maskUnits="userSpaceOnUse" x="8.001" y="6" width="273.178" height="276" id="SVGID_1_">
		<g filter="url(#Adobe_OpacityMaskFilter)">
			<image overflow="visible" width="1155" height="1167" xlink:href="F404F1E7.jpg"  transform="matrix(0.24 0 0 0.24 6.001 4)">
			</image>
		</g>
	</mask>
	<g opacity="0.26" mask="url(#SVGID_1_)">
		<path d="M281.121,226.2c0-4,0-8,0-12c0-8,0-16,0-24c0-16,0-32,0-48s0-32,0-48c0-8,0-16,0-24c0-2,0-4,0-6c0-1.04,0-2.08,0-3.12
			c0-1.067-0.24-1.872-0.24-2.88c0-2.113-0.184-3.997-0.479-6c-0.075-0.508-0.147-1.097-0.24-1.68
			c-0.062-0.383-0.419-1.057-0.48-1.44c-0.085-0.533-0.076-0.948-0.239-1.44c-0.087-0.26-0.153-0.46-0.24-0.72
			c-0.032-0.095-0.237-0.702-0.24-0.72c-0.182-1.138-0.369-2.068-0.72-3.12c-0.157-0.472-0.316-0.95-0.48-1.44
			c-0.072-0.218-0.159-0.478-0.239-0.72c-0.029-0.087-0.189-0.617-0.24-0.72c-0.988-1.998-1.9-3.99-2.88-6
			c-2.077-4.259-5.004-8.188-8.16-12c-1.719-2.075-3.943-3.859-6-5.52c-1.872-1.512-3.913-2.996-6-4.2
			c-3.85-2.221-7.868-3.491-12-5.04h-0.721c-0.319-0.16-0.64-0.32-0.96-0.48h-1.199c0-0.08,0-0.16,0-0.24h-1.44
			c0-0.08,0-0.16,0-0.24h-1.439c0-0.08,0-0.16,0-0.24h-1.921c0-0.08,0-0.16,0-0.24H54.321c0,0.08,0,0.16,0,0.24h-1.68
			c0,0.08,0,0.16,0,0.24h-1.92c0,0.08,0,0.16,0,0.24h-1.2c0,0.08,0,0.16,0,0.24h-0.96c-0.32,0.16-0.64,0.32-0.96,0.48h-1.2
			c-0.851,0.425-1.739,0.7-2.64,1c-9.469,3.156-17.381,9.331-23.52,16.88c-1.562,1.922-2.749,4.002-4.08,6
			c-1.191,1.787-2.447,3.98-3.12,6c-0.353,1.059-0.843,2.048-1.2,3.12c-0.317,0.952-0.637,1.911-0.96,2.88
			c-0.355,1.068-0.787,1.947-0.96,3.12c-0.067,0.455-0.411,1.009-0.48,1.44c-0.085,0.533-0.076,0.948-0.24,1.44
			c-0.336,1.009-0.318,2.02-0.48,3.12c-0.134,0.909-0.48,1.924-0.48,2.88c0,1.07-0.24,1.979-0.24,3.12c0,0.96,0,1.92,0,2.88
			c0,4,0,8,0,12c0,8,0,16,0,24c0,16,0,32,0,48c0,16,0,32,0,48c0,8,0,16,0,24c0,4,0,8,0,12c0,1.15,0.24,2.005,0.24,3.12
			c0,0.229-0.032,0.492,0,0.72c0.038,0.271,0.21,0.533,0.24,0.72c0.075,0.468-0.075,0.972,0,1.44
			c0.217,0.104,0.296,0.263,0.24,0.479c0,0.16,0,0.32,0,0.48c0.038,0.271,0.21,0.533,0.24,0.72c0.083,0.518,0.173,0.989,0.24,1.44
			c0.084,0.571,0.071,0.932,0.24,1.439c0.081,0.242,0.167,0.502,0.24,0.72c0.032,0.096,0.237,0.702,0.24,0.721
			c0.339,2.123,1.019,4.016,1.68,6c0.361,1.082,0.938,2.091,1.44,3.12c0.45,0.922,0.747,1.95,1.2,2.88
			c2.085,4.276,5.017,8.162,8.16,12c1.704,2.081,3.944,4.076,6,5.76c1.85,1.516,3.925,3.003,6,4.2c1.942,1.12,3.967,2.041,6,3
			c1.939,0.914,4.085,1.322,6,2.279h1.2c0.32,0.16,0.64,0.32,0.96,0.48h0.96c0,0.08,0,0.16,0,0.24h1.2c0,0.08,0,0.16,0,0.239h1.92
			c0,0.08,0,0.16,0,0.24h1.68c0,0.08,0,0.16,0,0.24h180.24c0-0.08,0-0.16,0-0.24h1.921c0-0.08,0-0.16,0-0.24h1.439
			c0-0.079,0-0.159,0-0.239h1.44c0-0.08,0-0.16,0-0.24h1.199c0.32-0.16,0.641-0.32,0.96-0.48h0.721c1.187-0.444,2.41-0.73,3.6-1.159
			c4.306-1.553,8.246-3.778,12-6.28c2.089-1.393,4.214-3.134,6-4.92c1.027-1.027,2.017-2.058,2.88-3.12
			c0.79-0.972,1.715-1.852,2.4-2.88c1.337-2.006,3.038-3.862,4.08-6c0.515-1.057,1.163-2.06,1.68-3.12
			c0.453-0.93,0.75-1.958,1.2-2.88c0.942-1.934,1.721-3.962,2.4-6c0.338-1.015,0.382-2.105,0.72-3.12
			c0.307-0.921,0.58-1.886,0.72-2.88c0.152-1.083,0.317-2.019,0.48-3.12c0.074-0.502,0.239-0.846,0.239-1.44
			c0-0.229-0.031-0.492,0-0.72c0.039-0.271,0.211-0.533,0.24-0.72c0.085-0.529,0-1.144,0-1.681c0-0.584,0.164-0.895,0.24-1.439
			C281.25,228.161,281.121,227.129,281.121,226.2z"/>
	</g>
</g>
<path fill="#231F20" d="M176.596,221.964c42.593-20.334,60.505-71.636,40.001-114.583c-20.506-42.956-71.655-61.274-114.248-40.942
	C59.754,86.773,41.847,138.06,62.354,181.017C82.857,223.962,134.002,242.298,176.596,221.964z M115.117,93.185
	c27.943-13.342,61.501-1.318,74.953,26.86c13.451,28.177,1.699,61.828-26.244,75.171c-27.94,13.336-61.494,1.315-74.945-26.862
	C75.429,140.173,87.176,106.522,115.117,93.185z"/>
<g>
	
		<image overflow="visible" opacity="0.75" width="901" height="624" xlink:href="F404F1E2.png"  transform="matrix(0.24 0 0 0.24 71.9321 76.0522)">
	</image>
	<g>
		<path fill="#BBBDBF" d="M130.276,84.709c-13.053,2.177-24.772,8.409-33.894,18.021c-9.629,10.146-15.265,22.967-16.298,37.071
			c-0.136,1.86-0.179,3.745-0.133,5.612c0.556,23.018,14.556,43.902,35.668,53.197c7.789,3.432,15.016,5.006,23.438,5.102
			c14.205,0.166,27.134-4.289,38.425-13.238c3.056-2.424,8.521-8.156,10.824-11.357c4.129-5.734,7.141-11.961,9.066-18.59
			l68.623-19.64l-70.143-18.351c-0.652-1.67-1.396-3.354-2.271-5.125c-9.062-18.338-26.596-30.709-46.895-33.093
			C142.603,83.837,134.32,84.033,130.276,84.709z M98.576,144.868c-0.274-11.37,3.527-21.29,11.302-29.475
			c6.26-6.598,13.779-10.643,22.992-12.365c2.405-0.451,10.024-0.573,12.539-0.205c18.227,2.676,32.412,16.486,35.297,34.363
			c0.271,1.674,0.432,3.473,0.477,5.354l0,0c0.088,3.628-0.269,7.402-1.002,10.631c-3.687,16.229-16.337,28.279-33.018,31.447
			c-2.871,0.541-9.669,0.705-12.549,0.3c-9.209-1.306-16.835-4.948-23.328-11.124c-8.036-7.664-12.432-17.656-12.709-28.904"/>
	</g>
</g>
<circle fill="#231F20" cx="139.341" cy="143.336" r="14"/>
</svg>
